<?xml version="1.0" encoding="utf-8"?>
<!-- Svg Vector Icons : http://www.onlinewebfonts.com/icon -->
<!DOCTYPE svg PUBLIC "-//W3C//DTD SVG 1.1//EN" "http://www.w3.org/Graphics/SVG/1.1/DTD/svg11.dtd">
<svg version="1.1" xmlns="http://www.w3.org/2000/svg" xmlns:xlink="http://www.w3.org/1999/xlink" x="0px" y="0px" viewBox="0 0 1000 1000" enable-background="new 0 0 1000 1000" xml:space="preserve">
<metadata> Svg Vector Icons : http://www.onlinewebfonts.com/icon </metadata>
<g><path d="M940.4,93.7H65.8c-31,0-55.8,18.6-55.8,49.6v558.2c0,24.8,24.8,49.6,49.6,49.6h880.8c24.8,0,49.6-24.8,49.6-49.6V143.4C990,112.3,965.2,93.7,940.4,93.7z M928,608.5H72v-459h862.2v459H928z"/><path d="M251.9,255c0,30.8,25,55.8,55.8,55.8c30.8,0,55.8-25,55.8-55.8c0-30.8-25-55.8-55.8-55.8C276.9,199.2,251.9,224.2,251.9,255L251.9,255z"/><path d="M531,385.3h235.7v161.3H531V385.3L531,385.3z"/><path d="M531,224h235.7v18.6H531V224z"/><path d="M531,261.2h235.7v18.6H531V261.2z"/><path d="M239.5,385.3h235.7v18.6H239.5V385.3z"/><path d="M239.5,422.5h235.7v18.6H239.5V422.5z"/><path d="M239.5,453.5h235.7v18.6H239.5V453.5z"/><path d="M239.5,490.7h235.7v18.6H239.5V490.7L239.5,490.7z"/><path d="M239.5,527.9h235.7v18.6H239.5V527.9z"/><path d="M667.5,850.4h-68.2l-12.4-130.3H413.2l-12.4,130.3h-68.2c-24.8,0-43.4,31-43.4,55.8h415.6C710.9,887.7,692.3,850.4,667.5,850.4z"/></g>
</svg>