<?xml version="1.0" encoding="utf-8"?>
<!-- Svg Vector Icons : http://www.onlinewebfonts.com/icon -->
<!DOCTYPE svg PUBLIC "-//W3C//DTD SVG 1.1//EN" "http://www.w3.org/Graphics/SVG/1.1/DTD/svg11.dtd">
<svg version="1.1" xmlns="http://www.w3.org/2000/svg" xmlns:xlink="http://www.w3.org/1999/xlink" x="0px" y="0px" viewBox="0 0 1000 1000" enable-background="new 0 0 1000 1000" xml:space="preserve">
<metadata> Svg Vector Icons : http://www.onlinewebfonts.com/icon </metadata>
<g><g transform="translate(0.000000,511.000000) scale(0.100000,-0.100000)"><path d="M4913.4,4983c-30.8-13.5-75-44.2-96.2-69.2c-36.5-40.4-38.5-73.1-44.2-584.7c-5.8-540.5-5.8-542.4,38.5-607.8c92.3-136.6,284.7-136.6,375.1-1.9c44.2,63.5,44.2,75,44.2,586.6c0,488.6-1.9,525.1-38.5,584.7c-36.6,59.6-138.5,121.2-196.2,119.3C4982.7,5008,4946.1,4996.5,4913.4,4983z"/><path d="M1932.1,3752c-82.7-36.5-125-109.6-125-217.4v-90.4l390.5-390.5c384.7-386.6,390.5-390.5,471.2-390.5c111.6,0,184.7,42.3,225,126.9c65.4,136.6,44.2,171.2-350.1,569.3C2124.4,3782.8,2074.4,3813.6,1932.1,3752z"/><path d="M7873.6,3748.2c-32.7-15.4-221.2-190.4-417.4-388.5c-394.3-398.2-415.5-432.8-350.1-569.3c40.4-84.6,113.5-126.9,225-126.9c80.8,0,86.6,3.8,471.2,390.5l390.5,390.5v90.4c0,109.6-42.3,182.7-128.9,217.4C7985.2,3786.6,7948.6,3784.7,7873.6,3748.2z"/><path d="M4528.8,2855.7c-884.8-177-1592.6-811.7-1863.8-1671.5c-146.2-461.6-144.3-1006,3.8-1444.5c115.4-336.6,242.4-538.6,665.5-1046.4c448.2-542.4,611.7-829,694.4-1227.2c36.5-171.2,40.4-157.7-38.5-186.6c-94.2-32.7-144.3-105.8-144.3-207.7c0-101.9,44.2-175,128.9-209.6c92.3-38.5,1958.1-38.5,2050.4,0c84.6,34.6,128.9,107.7,128.9,209.6c0,103.9-50,175-146.2,209.7c-76.9,26.9-76.9,26.9-13.5,282.7c84.6,348.1,221.2,575.1,679,1136.8c315.4,386.6,380.8,475.1,496.2,677.1c405.9,713.6,357.8,1677.2-117.3,2406.2c-373.2,571.3-925.2,942.5-1596.5,1073.3C5205.8,2905.7,4773,2905.7,4528.8,2855.7z M4430.7,2294c44.2-48.1,51.9-71.2,44.2-125c-15.4-90.4-42.3-119.2-163.5-173.1c-427-188.5-775.2-580.9-925.2-1046.4c-51.9-155.8-94.2-200-198.1-200c-59.6,0-86.6,11.5-123.1,53.9c-61.5,71.2-59.6,150,11.5,342.4c186.6,511.6,552,915.6,1042.5,1154.1C4301.8,2386.4,4346,2386.4,4430.7,2294z"/><path d="M641.5,732.2c-51.9-51.9-65.4-80.8-65.4-144.3c0-98.1,30.8-165.4,94.2-207.7c44.2-30.8,109.6-34.6,521.3-40.4c259.7-3.8,509.7,0,555.9,5.8c96.2,15.4,184.7,88.5,205.8,173.1c21.2,82.7-25,198.1-94.2,240.4c-57.7,36.5-100,38.5-605.9,38.5H706.9L641.5,732.2z"/><path d="M8141,759.1c-69.2-42.3-115.4-157.7-94.2-240.4c21.2-84.6,109.6-157.7,205.8-173.1c46.2-5.8,296.2-9.6,555.9-5.8c411.6,5.8,477,9.6,521.2,40.4c63.5,42.3,94.3,109.6,94.3,207.7c0,63.5-13.5,92.3-65.4,144.3l-65.4,65.4h-544.3C8241,797.6,8198.7,795.7,8141,759.1z"/><path d="M2586.1-1531.7c-61.6-34.6-721.3-694.3-752.1-752.1c-46.2-88.5-34.6-198.1,28.9-269.3c51.9-57.7,67.3-63.5,163.5-63.5h107.7l375.1,375.1c246.2,246.2,382.8,396.2,396.2,436.6c25,78.9-1.9,173.1-69.2,236.6C2782.3-1518.2,2645.7-1497,2586.1-1531.7z"/><path d="M7231.2-1524c-53.9-19.2-113.5-88.5-134.6-152c-40.4-117.3-5.8-165.4,394.3-565.5l375.1-375.1h107.7c96.2,0,111.6,5.8,163.5,63.5c59.6,67.3,75,178.9,34.6,259.7c-30.8,59.6-690.5,723.2-752.1,755.9C7367.8-1510.5,7285.1-1504.7,7231.2-1524z"/><path d="M3971-3307c-82.7-34.6-125-109.6-125-211.6c0-69.2,11.5-100,55.8-150l55.8-63.5H5000h1042.5l55.8,63.5c100,111.6,65.4,294.3-67.3,357.8c-57.7,26.9-176.9,30.8-1034.8,30.8C4236.4-3282,4015.2-3287.8,3971-3307z"/><path d="M3911.3-3941.7c-51.9-51.9-65.4-80.8-65.4-144.3c0-155.8,61.6-209.6,275-250.1c130.8-23.1,205.8-71.2,265.4-171.2c61.5-103.9,150-194.3,238.5-240.4c69.2-38.5,105.8-42.3,375.1-42.3c269.3,0,305.8,3.9,377,42.3c80.8,42.3,171.2,138.5,259.7,269.3c59.6,88.5,152,138.5,292.4,153.9c78.9,9.6,113.5,25,163.5,75c51.9,51.9,61.6,75,61.6,152c0,76.9-9.6,100-65.4,155.8l-65.4,65.4H5000H3976.7L3911.3-3941.7z M5296.2-4284.1c-76.9-132.7-71.2-130.8-296.2-130.8s-219.3-1.9-296.2,130.8c-11.5,17.3,53.9,23.1,296.2,23.1C5242.3-4261,5307.8-4266.8,5296.2-4284.1z"/></g></g>
</svg>