<?xml version="1.0" encoding="utf-8"?>
<!-- Svg Vector Icons : http://www.onlinewebfonts.com/icon -->
<!DOCTYPE svg PUBLIC "-//W3C//DTD SVG 1.1//EN" "http://www.w3.org/Graphics/SVG/1.1/DTD/svg11.dtd">
<svg version="1.1" xmlns="http://www.w3.org/2000/svg" xmlns:xlink="http://www.w3.org/1999/xlink" x="0px" y="0px" viewBox="0 0 1000 1000" enable-background="new 0 0 1000 1000" xml:space="preserve">
<metadata> Svg Vector Icons : http://www.onlinewebfonts.com/icon </metadata>
<g><g transform="translate(0.000000,512.000000) scale(0.100000,-0.100000)"><path d="M2394.3,4975.9c-57.5-30.7-97.7-70.9-128.4-128.4l-44.1-82.4v-869.8v-867.9h-465.6c-356.4,0-492.4-7.7-578.6-28.7c-320-84.3-578.6-323.8-705.1-657.2c-42.2-109.2-42.2-113.1-47.9-1885.3c-5.8-1963.8-7.7-1914,115-2149.7c92-172.4,281.6-354.4,456-436.8c178.2-86.2,298.9-111.1,517.3-111.1h170.5l5.8,1002l5.7,1000.1l49.8,107.3c95.8,205,275.9,354.5,488.6,410c103.5,26.8,429.2,28.7,2826,24.9l2709.1-5.8l111.1-51.7c153.3-72.8,302.7-220.3,369.8-365.9l55.6-118.8l5.8-1002l5.7-1000.1h176.3c335.3,0,569,92,781.7,304.6c76.6,74.7,151.4,174.3,187.8,247.1c120.7,239.5,118.8,187.8,113,2145.8l-5.8,1776.1l-51.7,132.2c-120.7,312.3-346.8,525-664.8,624.6c-107.3,34.5-176.3,38.3-597.8,38.3h-477.1v867.9c0,869.8,0,869.8-44.1,954.1c-30.7,59.4-69,97.7-128.4,128.4l-84.3,42.2H4998.1H2476.7L2394.3,4975.9z M7161.2,3703.8l-5.7-666.7H5000H2844.6l-5.7,666.7l-3.8,664.8h2165h2165L7161.2,3703.8z M8561.7,2222.7c42.1-19.2,105.4-72.8,141.8-116.9c233.8-272.1,36.4-687.8-323.8-687.8c-366,0-563.3,415.8-331.5,695.5C8165.1,2255.3,8400.8,2305.1,8561.7,2222.7z"/><path d="M2432.6-760.4c-70.9-26.8-141.8-93.9-174.4-166.7c-34.5-74.7-36.4-162.9-36.4-1839.3c0-1718.6,0-1764.6,38.3-1839.3c21.1-44.1,69-99.6,109.2-126.4l70.9-47.9h2567.3c2557.8,0,2569.3,0,2636.3,40.2c36.4,21.1,86.2,67.1,109.2,103.5l44.1,63.2v1804.8v1804.8l-42.2,63.2c-24.9,34.5-69,82.4-97.7,103.5l-53.6,40.2l-2571.2,3.8C3618.6-750.8,2448-754.6,2432.6-760.4z M7165-2749.1v-1389.1H5000H2835v1389.1v1389h2165h2165V-2749.1z"/><path d="M3486.4-1977c-107.3-74.7-143.7-137.9-143.7-260.6c0-130.3,49.8-214.6,162.9-272.1c72.8-36.4,116.9-38.3,1469.5-38.3c1333.5,0,1398.6,1.9,1475.3,38.3c92,40.2,151.3,122.6,168.6,233.8c15.3,90.1-47.9,231.8-130.3,291.2c-53.6,40.2-76.6,40.2-1496.3,46l-1440.8,3.8L3486.4-1977z"/><path d="M3536.2-3103.5c-115-34.5-203.1-162.9-203.1-293.1c0-72.8,59.4-172.4,139.9-231.8c53.7-40.2,69-40.2,1465.7-46c956-3.8,1435,0,1482.9,15.3c92,26.8,180.1,128.4,197.3,228c19.2,118.8-49.8,247.1-162.9,304.6l-84.3,42.2l-1391-1.9C4216.4-3086.3,3566.9-3095.9,3536.2-3103.5z"/></g></g>
</svg>